<svg xmlns="http://www.w3.org/2000/svg" xml:space="preserve" id="air-quality-monitor" x="0" y="0" style="enable-background:new 0 0 100 100" version="1.1" viewBox="0 0 100 100">
  <path d="M66.5,24c0-0.83,0.67-1.5,1.5-1.5h9c3.03,0,5.5-2.47,5.5-5.5s-2.47-5.5-5.5-5.5h-1c-0.83,0-1.5-0.67-1.5-1.5
	s0.67-1.5,1.5-1.5h1c4.69,0,8.5,3.81,8.5,8.5s-3.81,8.5-8.5,8.5h-9C67.17,25.5,66.5,24.83,66.5,24z M84,42.5h-2
	c-0.83,0-1.5,0.67-1.5,1.5s0.67,1.5,1.5,1.5h2c2.48,0,4.5,2.02,4.5,4.5s-2.02,4.5-4.5,4.5h-6c-0.83,0-1.5,0.67-1.5,1.5
	s0.67,1.5,1.5,1.5h6c4.14,0,7.5-3.36,7.5-7.5S88.14,42.5,84,42.5z M10,25.5h19c4.69,0,8.5-3.81,8.5-8.5S33.69,8.5,29,8.5h-1
	c-0.83,0-1.5,0.67-1.5,1.5s0.67,1.5,1.5,1.5h1c3.03,0,5.5,2.47,5.5,5.5s-2.47,5.5-5.5,5.5H10c-0.83,0-1.5,0.67-1.5,1.5
	S9.17,25.5,10,25.5z M26,70.5H10c-0.83,0-1.5,0.67-1.5,1.5s0.67,1.5,1.5,1.5h16c2.48,0,4.5,2.02,4.5,4.5s-2.02,4.5-4.5,4.5h-4
	c-0.83,0-1.5,0.67-1.5,1.5s0.67,1.5,1.5,1.5h4c4.14,0,7.5-3.36,7.5-7.5S30.14,70.5,26,70.5z M10,57.5h10c0.83,0,1.5-0.67,1.5-1.5
	s-0.67-1.5-1.5-1.5H10c-0.83,0-1.5,0.67-1.5,1.5S9.17,57.5,10,57.5z M10,41.5h12c0.83,0,1.5-0.67,1.5-1.5s-0.67-1.5-1.5-1.5H10
	c-0.83,0-1.5,0.67-1.5,1.5S9.17,41.5,10,41.5z M79,70.5H68c-0.83,0-1.5,0.67-1.5,1.5s0.67,1.5,1.5,1.5h11c3.03,0,5.5,2.47,5.5,5.5
	s-2.47,5.5-5.5,5.5h-3c-0.83,0-1.5,0.67-1.5,1.5s0.67,1.5,1.5,1.5h3c4.69,0,8.5-3.81,8.5-8.5S83.69,70.5,79,70.5z M60.5,69.01v5.9
	c0,1.98-1.61,3.59-3.59,3.59H54.5V90c0,0.28-0.22,0.5-0.5,0.5h-8c-0.28,0-0.5-0.22-0.5-0.5V78.5h-2.41c-1.98,0-3.59-1.61-3.59-3.59
	v-5.9c-2.27-1.13-4.31-2.6-6.06-4.35c-0.02-0.02-0.04-0.02-0.06-0.04c-0.01-0.01-0.02-0.03-0.03-0.05C29.05,60.24,26.5,54.3,26.5,48
	c0-6.45,2.61-12.29,6.83-16.54c0.02-0.02,0.03-0.05,0.05-0.08s0.05-0.03,0.08-0.05c4.25-4.22,10.1-6.83,16.54-6.83
	s12.29,2.61,16.54,6.83c0.02,0.02,0.05,0.03,0.08,0.05s0.03,0.05,0.05,0.08c3.77,3.79,6.24,8.86,6.73,14.49
	c0,0.02,0.01,0.03,0.01,0.05c0,0,0,0,0,0.01c0.06,0.66,0.09,1.32,0.09,1.99c0,6.3-2.55,12.24-6.85,16.57
	c-0.01,0.01-0.02,0.03-0.03,0.05c-0.02,0.02-0.05,0.03-0.07,0.04C64.81,66.41,62.77,67.87,60.5,69.01z M70.5,48
	c0-0.17-0.02-0.33-0.03-0.5H70c-0.83,0-1.5-0.67-1.5-1.5s0.67-1.5,1.5-1.5h0.18c-0.65-3.74-2.3-7.12-4.68-9.88l-0.3,0.3
	c-0.29,0.29-0.68,0.44-1.06,0.44s-0.77-0.15-1.06-0.44c-0.59-0.59-0.59-1.54,0-2.12l0.3-0.3c-3.24-2.8-7.35-4.6-11.88-4.93V28
	c0,0.83-0.67,1.5-1.5,1.5s-1.5-0.67-1.5-1.5v-0.42c-4.52,0.33-8.64,2.13-11.88,4.93l0.3,0.3c0.59,0.59,0.59,1.54,0,2.12
	c-0.29,0.29-0.68,0.44-1.06,0.44s-0.77-0.15-1.06-0.44l-0.3-0.3c-2.8,3.24-4.6,7.35-4.93,11.88H30c0.83,0,1.5,0.67,1.5,1.5
	s-0.67,1.5-1.5,1.5h-0.44c0.33,4.44,2.1,8.6,4.93,11.89l0.31-0.31c0.59-0.59,1.54-0.59,2.12,0c0.59,0.59,0.59,1.54,0,2.12
	l-0.31,0.31c1.44,1.25,3.07,2.31,4.85,3.12C44.13,67.87,47,68.5,50,68.5s5.87-0.63,8.54-1.86c1.78-0.82,3.41-1.88,4.85-3.13
	l-0.31-0.31c-0.59-0.59-0.59-1.54,0-2.12c0.59-0.59,1.54-0.59,2.12,0l0.31,0.31C68.66,57.73,70.5,53,70.5,48z M58.84,37.04
	l-6.91,6.91c-0.6-0.28-1.25-0.45-1.93-0.45c-2.48,0-4.5,2.02-4.5,4.5c0,0.68,0.16,1.33,0.45,1.93l-1.01,1.01
	c-0.59,0.59-0.59,1.54,0,2.12c0.29,0.29,0.68,0.44,1.06,0.44s0.77-0.15,1.06-0.44l1.01-1.01c0.6,0.29,1.25,0.45,1.93,0.45
	c2.48,0,4.5-2.02,4.5-4.5c0-0.68-0.17-1.33-0.45-1.93l6.91-6.91c0.59-0.59,0.59-1.54,0-2.12C60.37,36.45,59.43,36.45,58.84,37.04z"></path>
</svg>
